# xmcd
#
# Track frame offsets: 
#        150
#        18084
#        33251
#        48972
#        64451
#        78036
#        90887
#        108484
#        131173
#        148740
#        163701
#        178138
#        193219
#        204210
#        219157
#        233898
#        248064
#        260769
#        273809
#        289220
#        304688
#
# Disc length: 4248 seconds
#
# Revision: 0
# Processed by: cddbd v1.5.2PL0 Copyright (c) Steve Scherf et al.
# Submitted via: ExactAudioCopy v0.99pb4
#
DISCID=26109615
DTITLE=Various Artist - Hits Van Hier 2016 - CD 2
DYEAR=2016
DGENRE=Chanson
TTITLE0=De Romeo's - Cabrio
TTITLE1=Luc Steeno - Kijk Me Niet Zo Aan
TTITLE2=Niels Destadsbader - Speeltijd
TTITLE3=Amaryllis Temmerman - 1 Moment
TTITLE4=Aurélie - De Laatste
TTITLE5=De Geest - Van Iemand Houden
TTITLE6=Micha Marah Feat. Fatih - Ik Droom Jou In Kleur
TTITLE7=Nicole and Hugo - Hoe Zal Het Zijn
TTITLE8=Sabien Tiels and Marcel De Groot - Is Het Dit Nu?
TTITLE9=Frank Galan - Op Reis Naar De Zomer
TTITLE10=Swoop - Lailola
TTITLE11=Yves Segers - Iedereen Doet 't
TTITLE12=Jettie Pallettie - Ik Ben Jettie!
TTITLE13=De Stoempers - 30, 40, 50 Jaar
TTITLE14=Michel Van Den Brande and Dennie Damaro - Ik Breng Geen Bloemen
TTITLE14=Voor Je Mee
TTITLE15=Adya and Fadim - Vrienden Voor Het Leven
TTITLE16=Gilles Simoens - Wat Een Nacht
TTITLE17=John Dennis - Liefde
TTITLE18=Kitana - Je Laatste Reis
TTITLE19=Yvette Ravell - Kom Dans Met Mij
TTITLE20=Christiano And His Magical Orchestra - Dancing Coyotes
EXTD=
EXTT0=
EXTT1=
EXTT2=
EXTT3=
EXTT4=
EXTT5=
EXTT6=
EXTT7=
EXTT8=
EXTT9=
EXTT10=
EXTT11=
EXTT12=
EXTT13=
EXTT14=
EXTT15=
EXTT16=
EXTT17=
EXTT18=
EXTT19=
EXTT20=
PLAYORDER=
